<svg width="260" height="119" viewBox="0 0 260 119" fill="none" xmlns="http://www.w3.org/2000/svg">
<rect width="260" height="119" rx="8" fill="white"/>
<g clip-path="url(#clip0_1_258163)">
<path opacity="0.05" d="M48.7501 85.0803C62.3529 85.0803 73.3801 83.567 73.3801 81.7003C73.3801 79.8336 62.3529 78.3203 48.7501 78.3203C35.1473 78.3203 24.1201 79.8336 24.1201 81.7003C24.1201 83.567 35.1473 85.0803 48.7501 85.0803Z" fill="black"/>
<path d="M215.45 49.1505C215.436 46.7071 216.244 44.3299 217.745 42.4013C219.245 40.4726 221.35 39.1046 223.722 38.5171C226.094 37.9297 228.594 38.1569 230.821 39.1624C233.048 40.1678 234.872 41.893 236 44.0605L232 45.3605C231.206 44.182 230.062 43.2828 228.729 42.7899C227.396 42.2971 225.942 42.2355 224.572 42.614C223.203 42.9924 221.986 43.7916 221.095 44.8988C220.205 46.006 219.684 47.3651 219.608 48.7841C219.531 50.2031 219.902 51.6103 220.669 52.8069C221.436 54.0034 222.559 54.9288 223.88 55.4523C225.201 55.9758 226.653 56.071 228.032 55.7243C229.41 55.3777 230.644 54.6068 231.56 53.5205L229.18 53.9105L226.29 51.0205L232.51 50.0205L238.74 49.0205L237.74 55.2405L236.74 61.4605L233.77 58.5005L234.05 56.7905C232.529 58.3155 230.59 59.3552 228.478 59.7779C226.365 60.2007 224.175 59.9875 222.184 59.1654C220.193 58.3433 218.491 56.9492 217.292 55.1594C216.093 53.3696 215.453 51.2646 215.45 49.1105V49.1505ZM89.6004 52.3905C89.5493 53.5621 89.7935 54.7278 90.3104 55.7805C90.7863 56.7079 91.471 57.5124 92.3104 58.1305C93.1881 58.7681 94.179 59.233 95.2304 59.5005C96.3457 59.7999 97.4956 59.9512 98.6504 59.9505C99.9382 59.9747 101.222 59.8061 102.46 59.4505C103.465 59.1667 104.406 58.6913 105.23 58.0505C105.956 57.4699 106.535 56.7265 106.92 55.8805C107.302 55.0283 107.496 54.1042 107.49 53.1705C107.533 52.1406 107.261 51.1221 106.71 50.2505C106.255 49.5176 105.648 48.8903 104.93 48.4105C104.284 47.9685 103.572 47.631 102.82 47.4105C102.282 47.2322 101.734 47.082 101.18 46.9605L97.9304 46.1305C97.2714 45.972 96.626 45.7613 96.0004 45.5005C95.6338 45.3537 95.3153 45.1078 95.0804 44.7905C94.91 44.4855 94.8269 44.1395 94.8404 43.7905C94.8256 43.3923 94.9301 42.9989 95.1404 42.6605C95.337 42.3684 95.5883 42.1171 95.8804 41.9205C96.1877 41.7251 96.5258 41.5831 96.8804 41.5005C97.2519 41.4214 97.6306 41.3812 98.0104 41.3805C98.5531 41.3631 99.0961 41.4033 99.6304 41.5005C100.095 41.5873 100.539 41.7603 100.94 42.0105C101.323 42.2555 101.631 42.6016 101.83 43.0105C102.077 43.4706 102.221 43.9791 102.25 44.5005H106.77C106.806 43.4135 106.562 42.3356 106.06 41.3705C105.62 40.5157 104.979 39.7811 104.19 39.2305C103.363 38.6592 102.432 38.255 101.45 38.0405C100.411 37.7775 99.3426 37.6465 98.2704 37.6505C97.3039 37.6522 96.342 37.7833 95.4104 38.0405C94.4933 38.2823 93.6264 38.6852 92.8504 39.2305C92.0986 39.7581 91.4679 40.4399 91.0004 41.2305C90.5269 42.0969 90.2922 43.0736 90.3204 44.0605C90.2972 44.9251 90.4824 45.7825 90.8604 46.5605C91.2231 47.2228 91.7204 47.8019 92.3204 48.2605C92.9304 48.7296 93.6038 49.11 94.3204 49.3905C95.0795 49.674 95.8541 49.9144 96.6404 50.1105C97.4104 50.3305 98.1804 50.5305 98.9304 50.7005C99.6109 50.8636 100.279 51.0741 100.93 51.3305C101.461 51.5295 101.947 51.832 102.36 52.2205C102.549 52.4002 102.698 52.6179 102.796 52.8592C102.894 53.1006 102.94 53.3601 102.93 53.6205C102.947 54.1019 102.799 54.5745 102.51 54.9605C102.239 55.296 101.897 55.5689 101.51 55.7605C101.086 55.9642 100.635 56.1057 100.17 56.1805C99.726 56.2382 99.2785 56.2683 98.8304 56.2705C98.2162 56.2903 97.6018 56.2366 97.0004 56.1105C96.4605 55.9669 95.9472 55.7373 95.4804 55.4305C95.0598 55.104 94.718 54.687 94.4804 54.2105C94.2062 53.6475 94.0724 53.0264 94.0904 52.4005L89.6004 52.3905ZM141.48 43.3905L144.16 51.1905H138.66L141.48 43.3905ZM131.16 59.1905V38.2005H124.58L119.82 52.8105L114.82 38.2005H108.28V59.4405H112.65L112.71 44.5005L117.92 59.4105H121.52L126.79 44.3505V59.4405H135.79L137.46 54.7105H145.4L147 59.4405H151.85L143.89 38.2005H139.1L131.16 59.1905ZM150.36 52.4005C150.312 53.573 150.56 54.7387 151.08 55.7905C151.557 56.7173 152.242 57.5216 153.08 58.1405C153.959 58.7743 154.95 59.2358 156 59.5005C157.116 59.8 158.266 59.9513 159.42 59.9505C160.708 59.9735 161.992 59.805 163.23 59.4505C164.235 59.1667 165.176 58.6913 166 58.0505C166.731 57.4718 167.313 56.7281 167.7 55.8805C168.08 55.028 168.271 54.1036 168.26 53.1705C168.307 52.1415 168.038 51.1227 167.49 50.2505C167.031 49.5169 166.421 48.8897 165.7 48.4105C165.054 47.9683 164.342 47.6308 163.59 47.4105C163.052 47.2315 162.505 47.0813 161.95 46.9605L158.71 46.1305C158.047 45.9622 157.399 45.7415 156.77 45.4705C156.404 45.3232 156.086 45.0775 155.85 44.7605C155.68 44.4555 155.597 44.1095 155.61 43.7605C155.596 43.3623 155.7 42.9689 155.91 42.6305C156.106 42.3377 156.358 42.0863 156.65 41.8905C156.957 41.6948 157.296 41.5527 157.65 41.4705C158.022 41.3914 158.401 41.3512 158.78 41.3505C159.311 41.3459 159.84 41.3961 160.36 41.5005C160.825 41.5873 161.269 41.7603 161.67 42.0105C162.053 42.2563 162.361 42.6022 162.56 43.0105C162.813 43.4697 162.963 43.9779 163 44.5005H167.52C167.553 43.4126 167.305 42.3346 166.8 41.3705C166.361 40.515 165.719 39.7802 164.93 39.2305C164.103 38.6588 163.173 38.2545 162.19 38.0405C161.146 37.79 160.074 37.6724 159 37.6905C158.034 37.6922 157.072 37.8233 156.14 38.0805C155.223 38.3223 154.356 38.7252 153.58 39.2705C152.832 39.7984 152.204 40.4803 151.74 41.2705C151.267 42.1369 151.032 43.1136 151.06 44.1005C151.036 44.9651 151.222 45.8228 151.6 46.6005C151.964 47.2625 152.461 47.8415 153.06 48.3005C153.671 48.7684 154.344 49.1487 155.06 49.4305C155.82 49.7133 156.594 49.9537 157.38 50.1505C158.15 50.3705 158.92 50.5705 159.67 50.7405C160.351 50.9033 161.019 51.1138 161.67 51.3705C162.202 51.569 162.688 51.8716 163.1 52.2605C163.287 52.4414 163.433 52.6596 163.529 52.9008C163.626 53.1421 163.671 53.4009 163.66 53.6605C163.675 54.1417 163.527 54.6138 163.24 55.0005C162.969 55.336 162.627 55.6089 162.24 55.8005C161.816 56.004 161.365 56.1454 160.9 56.2205C160.456 56.2782 160.008 56.3083 159.56 56.3105C158.961 56.3101 158.364 56.2396 157.78 56.1005C157.24 55.9573 156.727 55.7276 156.26 55.4205C155.841 55.093 155.499 54.6763 155.26 54.2005C154.987 53.6373 154.853 53.0164 154.87 52.3905L150.36 52.4005ZM169.04 59.4005H173.71V50.2805H182.31V59.4405H187V38.2005H182.33V46.3505H173.73V38.2005H169L169.04 59.4005ZM189.11 59.4005H193.78V38.2005H189.11V59.4005ZM195.92 59.4005H200.29L200.35 45.1805L209.19 59.4005H213.86V38.2005H209.48L209.43 52.5005L200.57 38.2005H195.93L195.92 59.4005Z" fill="#E96033"/>
<path d="M56.5702 63.61C54.432 62.018 52.0741 60.7447 49.5702 59.83C47.6857 59.0685 45.8887 58.1062 44.2102 56.96C40.2102 54.1733 38.2102 50.7167 38.2102 46.59C38.1104 44.1046 38.8854 41.6629 40.4002 39.69C40.667 39.359 40.9542 39.0451 41.2602 38.75L32.7102 40.75C31.5169 41.0262 30.4821 41.7649 29.8333 42.8037C29.1845 43.8426 28.9747 45.0966 29.2502 46.29L36.3302 76.88C36.6065 78.0711 37.3436 79.1042 38.3802 79.7527C39.4168 80.4013 40.6682 80.6125 41.8602 80.34L45.3602 79.5L45.0902 79.43C42.7298 78.7042 40.4562 77.7217 38.3102 76.5L42.0002 68.34C44.9365 70.731 48.6136 72.025 52.4002 72C56.4002 72 58.4002 70.57 58.4002 67.73C58.4196 66.9506 58.2654 66.1766 57.9489 65.464C57.6325 64.7515 57.1615 64.1182 56.5702 63.61Z" fill="#E96033"/>
<path d="M75.9108 67.7199L68.8308 37.1299C68.5545 35.9388 67.8173 34.9057 66.7808 34.2572C65.7442 33.6086 64.4928 33.3974 63.3008 33.6699L58.1508 34.8599C58.7441 34.9532 59.3308 35.0632 59.9108 35.1899C62.2191 35.7039 64.4534 36.5069 66.5608 37.5799L63.5608 45.5799C61.3208 43.6599 58.1908 42.6999 54.1908 42.6999C50.6041 42.6999 48.8074 44.1266 48.8008 46.9799C48.84 47.5837 49.0207 48.1698 49.3281 48.6909C49.6356 49.212 50.0613 49.6535 50.5708 49.9799C52.9429 51.4843 55.4794 52.7122 58.1308 53.6399C60.432 54.4848 62.5877 55.6824 64.5208 57.1899C65.2599 57.7799 65.9308 58.4507 66.5208 59.1899C68.2459 61.4367 69.1462 64.2082 69.0708 67.0399C69.1533 69.7736 68.2877 72.4516 66.6208 74.6199L72.4508 73.2699C73.0434 73.1344 73.6033 72.8831 74.0983 72.5304C74.5934 72.1777 75.0138 71.7305 75.3354 71.2147C75.657 70.6989 75.8734 70.1245 75.9721 69.5248C76.0709 68.925 76.05 68.3116 75.9108 67.7199V67.7199Z" fill="#E96033"/>
<path d="M92.5 66.5H94.22L98.46 77.44L102.68 66.5H104.4V78.96H103.23V68.18L99 78.96H97.9L93.7 68.18V78.96H92.5V66.5Z" fill="#E96033"/>
<path d="M113.85 66.5H115.15L120 78.96H118.71L117.22 75.08H111.64L110.16 78.96H108.91L113.85 66.5ZM112 74.07H116.82L114.45 67.67L112 74.07Z" fill="#E96033"/>
<path d="M135 78.9605H134.16L134 76.6905C133.626 77.4862 133.022 78.152 132.267 78.6027C131.511 79.0534 130.639 79.2685 129.76 79.2205C125.9 79.2205 123.98 76.1305 123.98 72.7205C123.98 69.3105 125.9 66.2205 129.76 66.2205C130.98 66.1326 132.187 66.5113 133.138 67.28C134.088 68.0486 134.711 69.1498 134.88 70.3605H133.71C133.54 69.4501 133.047 68.632 132.321 68.0568C131.595 67.4816 130.686 67.1882 129.76 67.2305C126.52 67.2305 125.14 69.9905 125.14 72.7205C125.14 75.4505 126.51 78.2105 129.76 78.2105C132.47 78.2105 134.05 76.2705 134 73.6305H129.83V72.6305H135V78.9605Z" fill="#E96033"/>
<path d="M144.25 66.5H145.55L150.36 78.97H149.11L147.62 75.09H142L140.52 78.97H139.27L144.25 66.5ZM142.4 74.08H147.22L144.85 67.68L142.4 74.08Z" fill="#E96033"/>
<path d="M154.31 66.5H163.13V67.5L155.06 77.91H163.3V78.91H153.76V77.91L161.83 67.5H154.31V66.5Z" fill="#E96033"/>
<path d="M168.28 66.5H169.45V78.96H168.28V66.5Z" fill="#E96033"/>
<path d="M175.42 66.5H176.72L183.86 77.05V66.5H185.03V78.96H183.73L176.59 68.41V78.96H175.42V66.5Z" fill="#E96033"/>
<path d="M191 66.5H199.46V67.5H192.16V72.01H199V73.01H192.17V77.94H199.55V78.94H191V66.5Z" fill="#E96033"/>
</g>
<defs>
<clipPath id="clip0_1_258163">
<rect width="220" height="52" fill="white" transform="translate(20 33.5)"/>
</clipPath>
</defs>
</svg>
