<svg width="251" height="119" viewBox="0 0 251 119" fill="none" xmlns="http://www.w3.org/2000/svg">
<rect width="251" height="119" rx="8" fill="white"/>
<g clip-path="url(#clip0_1_258181)">
<path d="M64.5 66.4V73.6C64.5 74.5 64.7 75.2 65.1 75.7C65.5 76.2 66.1 76.5 66.7 76.5H69.6V78.2H66.8C65.7 78.2 64.7 77.8 63.9 77C63.1 76.2 62.7 75.1 62.7 73.6V66.4C62.7 65.1 62.5 63.8 62 62.7C61.6 61.6 61 60.7 60.3 60C59.6 59.3 58.7 58.7 57.8 58.3C56.9 57.9 55.9 57.7 54.8 57.7H53V56H54.9C56.2 56 57.4 56.2 58.5 56.7C59.7 57.2 60.7 57.8 61.6 58.7C62.5 59.6 63.2 60.7 63.7 62C64.3 63.4 64.5 64.8 64.5 66.4ZM61.1 66.4V73.6C61.1 75.6 61.7 77.1 62.8 78.2C63.9 79.3 65.3 79.9 66.9 79.9H69.7V81.6H66.9C64.8 81.6 63 80.9 61.6 79.4C60.1 78 59.4 76 59.4 73.6V66.4C59.4 64.7 59 63.4 58.2 62.5C57.4 61.6 56.3 61.1 55 61.1H53V59.4H54.9C56.6 59.4 58.1 60 59.3 61.3C60.5 62.5 61.1 64.2 61.1 66.4ZM57.7 66.4V73.6C57.7 76.5 58.6 78.9 60.4 80.6C62.2 82.4 64.4 83.3 66.9 83.3H69.8V85H67C65.1 85 63.3 84.5 61.6 83.6C59.9 82.7 58.6 81.4 57.6 79.6C56.6 77.8 56.1 75.8 56.1 73.5V66.3C56.1 65.6 56 65.1 55.8 64.9C55.6 64.7 55.3 64.5 54.9 64.5H53V62.8H54.8C55.6 62.8 56.3 63.1 56.8 63.7C57.4 64.3 57.7 65.2 57.7 66.4ZM57.6 55.3L55.9 55.1C55.9 54.8 56 54.5 56 54.2V45C56 42.7 56.5 40.7 57.5 38.9C58.5 37.1 59.9 35.8 61.5 34.9C63.1 34 64.9 33.5 66.9 33.5H69.7V35.2H66.8C64.3 35.2 62.1 36.1 60.3 37.9C58.5 39.7 57.6 42 57.6 44.9V54.1C57.7 54.6 57.6 55 57.6 55.3ZM60.7 56.7L59.1 55.9C59.3 55.1 59.3 54.5 59.3 54.2V45C59.3 42.6 60 40.6 61.5 39.2C63 37.8 64.7 37 66.8 37H69.6V38.7H66.8C65.2 38.7 63.8 39.3 62.7 40.4C61.6 41.5 61.1 43.1 61.1 45V54.2C61.1 55 61 55.8 60.7 56.7ZM63.5 59.1L62.2 57.8C62.6 56.7 62.8 55.5 62.8 54.2V45C62.8 43.6 63.2 42.5 64 41.6C64.8 40.9 65.7 40.5 66.9 40.5H69.7V42.2H66.8C66.1 42.2 65.6 42.5 65.2 43C64.8 43.5 64.6 44.2 64.6 45.1V54.3C64.5 56 64.2 57.6 63.5 59.1Z" fill="black"/>
<path d="M111.5 47.2L110 48.1C108.2 45.4 105.9 43.4 103 41.8C100.1 40.3 96.9998 39.5 93.6998 39.5C90.9998 39.5 88.4998 40 85.9998 41.1C83.5998 42.1 81.4998 43.5 79.6998 45.3C77.8998 47.1 76.4998 49.2 75.4998 51.6C74.4998 54 73.8998 56.6 73.8998 59.3C73.8998 62 74.3998 64.5 75.4998 67C76.4998 69.4 77.8998 71.5 79.6998 73.3C81.4998 75.1 83.5998 76.5 85.9998 77.5C88.3998 78.5 90.9998 79.1 93.6998 79.1C96.9998 79.1 100.1 78.3 103 76.8C105.9 75.2 108.2 73.1 110 70.5L111.4 71.5C109.4 74.4 106.9 76.6 103.8 78.3C100.7 80 97.2998 80.8 93.6998 80.8C90.7998 80.8 87.9998 80.2 85.3998 79.1C82.7998 78 80.4998 76.4 78.5998 74.5C76.6998 72.6 75.1998 70.3 73.9998 67.7C72.8998 65.1 72.2998 62.3 72.2998 59.4C72.2998 56.5 72.8998 53.7 73.9998 51.1C75.0998 48.5 76.6998 46.2 78.5998 44.3C80.4998 42.4 82.7998 40.9 85.3998 39.7C87.9998 38.5 90.7998 38 93.6998 38C97.2998 38 100.7 38.8 103.8 40.5C107 42 109.5 44.3 111.5 47.2ZM108.7 49.2L107.3 50.1C105.8 47.9 103.9 46.2 101.5 44.9C99.0998 43.6 96.5998 43 93.7998 43C91.5998 43 89.4998 43.4 87.4998 44.3C85.4998 45.2 83.7998 46.3 82.2998 47.8C80.7998 49.3 79.6998 51 78.7998 53C77.8998 55 77.4998 57.1 77.4998 59.3C77.4998 61.5 77.8998 63.6 78.7998 65.6C79.6998 67.6 80.7998 69.4 82.2998 70.8C83.7998 72.3 85.4998 73.4 87.4998 74.3C89.4998 75.2 91.5998 75.6 93.7998 75.6C96.5998 75.6 99.0998 75 101.5 73.7C103.9 72.4 105.8 70.7 107.3 68.5L108.7 69.5C107 71.9 104.9 73.8 102.3 75.2C99.6998 76.6 96.8998 77.3 93.7998 77.3C90.4998 77.3 87.4998 76.5 84.7998 74.9C81.9998 73.3 79.8998 71.1 78.1998 68.3C76.5998 65.5 75.7998 62.5 75.7998 59.3C75.7998 56.1 76.5998 53 78.1998 50.3C79.7998 47.5 81.9998 45.4 84.7998 43.7C87.5998 42.1 90.5998 41.3 93.7998 41.3C96.7998 41.3 99.6998 42 102.3 43.4C104.9 44.8 107 46.7 108.7 49.2ZM105.8 51.1L104.4 52C103.2 50.3 101.7 48.9 99.7998 47.9C97.8998 46.9 95.8998 46.4 93.6998 46.4C91.3998 46.4 89.1998 47 87.1998 48.1C85.1998 49.3 83.6998 50.8 82.4998 52.8C81.2998 54.8 80.7998 56.9 80.7998 59.3C80.7998 61.6 81.3998 63.8 82.4998 65.8C83.5998 67.8 85.1998 69.3 87.1998 70.5C89.1998 71.7 91.2998 72.2 93.6998 72.2C95.8998 72.2 97.8998 71.7 99.7998 70.7C101.7 69.7 103.2 68.3 104.4 66.6L105.8 67.6C104.5 69.6 102.7 71.1 100.6 72.3C98.4998 73.4 96.1998 74 93.6998 74C91.0998 74 88.5998 73.3 86.3998 72C84.1998 70.7 82.3998 68.9 81.0998 66.7C79.7998 64.5 79.0998 62 79.0998 59.4C79.0998 56.8 79.7998 54.3 81.0998 52.1C82.3998 49.9 84.1998 48.1 86.3998 46.8C88.5998 45.5 91.0998 44.8 93.6998 44.8C96.1998 44.8 98.4998 45.4 100.6 46.5C102.7 47.6 104.5 49.1 105.8 51.1ZM103 53L101.6 53.9C100.7 52.6 99.5998 51.6 98.2998 50.9C96.9998 50.2 95.3998 49.8 93.7998 49.8C91.1998 49.8 88.9998 50.7 87.0998 52.6C85.2998 54.4 84.2998 56.7 84.2998 59.3C84.2998 61.9 85.1998 64.1 87.0998 66C88.8998 67.8 91.1998 68.8 93.7998 68.8C95.3998 68.8 96.8998 68.4 98.2998 67.7C99.6998 67 100.8 65.9 101.6 64.7L103 65.7C102 67.2 100.7 68.4 98.9998 69.2C97.3998 70.1 95.5998 70.5 93.7998 70.5C92.2998 70.5 90.8998 70.2 89.4998 69.6C88.0998 69 86.8998 68.2 85.8998 67.2C84.8998 66.2 84.0998 65 83.4998 63.6C82.8998 62.2 82.5998 60.8 82.5998 59.3C82.5998 57.8 82.8998 56.4 83.4998 55C84.0998 53.6 84.8998 52.4 85.8998 51.4C86.8998 50.4 88.0998 49.6 89.4998 49C90.8998 48.4 92.2998 48.1 93.7998 48.1C95.6998 48.1 97.3998 48.5 99.0998 49.4C100.6 50.3 102 51.5 103 53Z" fill="black"/>
<path d="M130.7 55.0002H127.8C126.6 55.0002 125.7 54.7002 125.2 54.1002C124.7 53.5002 124.4 52.6002 124.4 51.6002C124.4 49.3002 126.1 48.2002 129.5 48.2002C132.7 48.2002 135.1 48.7002 136.7 49.6002L135.3 50.6002C134.2 50.1002 132.2 49.8002 129.4 49.8002C128 49.8002 127.1 50.0002 126.6 50.3002C126.2 50.6002 126 51.0002 126 51.5002C126 52.0002 126.1 52.5002 126.4 52.8002C126.7 53.1002 127.1 53.3002 127.8 53.3002H130.8C132.9 53.3002 134.9 53.7002 136.6 54.4002C138.3 55.1002 139.7 56.1002 140.8 57.4002C141.9 58.7002 142.8 60.1002 143.3 61.8002C143.9 63.4002 144.2 65.2002 144.2 67.1002C144.2 68.6002 144 70.1002 143.6 71.4002C143.2 72.8002 142.5 74.0002 141.7 75.2002C140.8 76.3002 139.8 77.3002 138.6 78.2002C137.4 79.0002 135.9 79.7002 134.3 80.2002C132.6 80.7002 130.8 80.9002 128.9 80.9002C125.8 80.9002 123 80.4002 120.3 79.5002C117.6 78.6002 115.4 77.3002 113.6 75.6002L115 74.6002C116.6 76.1002 118.6 77.2002 121.1 78.0002C123.5 78.8002 126.1 79.2002 128.9 79.2002C131.1 79.2002 133 78.9002 134.8 78.3002C136.6 77.7002 138 76.8002 139.1 75.7002C140.2 74.6002 141.1 73.3002 141.7 71.9002C142.3 70.5002 142.6 68.9002 142.6 67.2002C142.6 65.0002 142.2 63.0002 141.3 61.2002C140.4 59.4002 139.1 58.0002 137.2 56.9002C135.3 55.8002 133.2 55.0002 130.7 55.0002ZM127.8 63.5002H130.4C131.6 63.5002 132.5 63.8002 133 64.5002C133.5 65.1002 133.8 66.0002 133.8 67.0002C133.8 69.3002 132.1 70.4002 128.7 70.4002C125.5 70.4002 123.1 69.9002 121.4 69.0002L122.8 68.0002C123.9 68.5002 125.9 68.8002 128.7 68.8002C130.1 68.8002 131 68.6002 131.5 68.3002C132 68.0002 132.2 67.6002 132.2 67.0002C132.2 66.5002 132.1 66.1002 131.8 65.7002C131.5 65.4002 131.1 65.2002 130.4 65.2002H127.8C125.6 65.2002 123.6 64.8002 121.9 64.1002C120.1 63.4002 118.7 62.4002 117.5 61.1002C116.4 59.8002 115.5 58.4002 114.9 56.7002C114.3 55.2002 114 53.5002 114 51.5002C114 50.0002 114.2 48.5002 114.6 47.2002C115 45.8002 115.7 44.6002 116.5 43.4002C117.4 42.3002 118.4 41.3002 119.6 40.4002C120.8 39.5002 122.3 38.9002 123.9 38.4002C125.5 37.9002 127.4 37.7002 129.3 37.7002C132.4 37.7002 135.2 38.2002 137.9 39.1002C140.6 40.0002 142.8 41.3002 144.6 43.0002L143.2 44.0002C141.6 42.5002 139.6 41.4002 137.1 40.6002C134.7 39.8002 132.1 39.4002 129.3 39.4002C127.1 39.4002 125.2 39.7002 123.4 40.3002C121.6 40.9002 120.2 41.8002 119.1 42.9002C118 44.0002 117.1 45.3002 116.5 46.7002C115.9 48.1002 115.6 49.7002 115.6 51.4002C115.6 53.6002 116.1 55.7002 117 57.4002C117.9 59.2002 119.3 60.6002 121.1 61.7002C123.1 63.0002 125.3 63.5002 127.8 63.5002ZM127.8 56.7002H130.5C133.7 56.7002 136.2 57.7002 138.1 59.7002C139.9 61.7002 140.8 64.1002 140.8 67.0002C140.8 70.0002 139.7 72.4002 137.6 74.4002C135.5 76.4002 132.5 77.3002 128.7 77.3002C126.2 77.3002 123.8 77.0002 121.6 76.3002C119.4 75.6002 117.6 74.6002 116.1 73.3002L117.4 72.2002C118.7 73.3002 120.3 74.1002 122.3 74.7002C124.3 75.3002 126.4 75.6002 128.7 75.6002C132 75.6002 134.6 74.8002 136.4 73.2002C138.2 71.6002 139.1 69.5002 139.1 67.0002C139.1 64.5002 138.4 62.5002 136.9 60.9002C135.4 59.3002 133.3 58.5002 130.5 58.5002H127.8C125.5 58.5002 123.7 57.9002 122.6 56.6002C121.5 55.3002 120.9 53.7002 120.9 51.6002C120.9 49.5002 121.6 47.9002 123.1 46.6002C124.5 45.3002 126.7 44.7002 129.6 44.7002C131.6 44.7002 133.5 44.9002 135.2 45.4002C136.9 45.9002 138.4 46.5002 139.5 47.4002L138 48.5002C136 47.1002 133.2 46.5002 129.5 46.5002C127.1 46.5002 125.4 47.0002 124.3 47.9002C123.2 48.8002 122.6 50.1002 122.6 51.6002C122.6 53.2002 123 54.4002 123.8 55.3002C124.6 56.2002 125.9 56.7002 127.8 56.7002ZM127.8 60.1002H130.4C132.7 60.1002 134.5 60.7002 135.6 62.0002C136.8 63.3002 137.3 64.9002 137.3 66.9002C137.3 68.9002 136.6 70.6002 135.1 71.9002C133.7 73.2002 131.5 73.8002 128.6 73.8002C126.6 73.8002 124.7 73.6002 123 73.1002C121.3 72.6002 119.8 72.0002 118.7 71.1002L120.1 70.1002C122.1 71.5002 124.9 72.1002 128.7 72.1002C131.1 72.1002 132.8 71.6002 133.9 70.7002C135 69.8002 135.6 68.5002 135.6 67.0002C135.6 65.5002 135.2 64.2002 134.4 63.3002C133.6 62.4002 132.2 61.9002 130.4 61.9002H127.8C124.5 61.9002 122 60.9002 120.2 59.0002C118.4 57.1002 117.5 54.6002 117.5 51.6002C117.5 48.6002 118.6 46.2002 120.7 44.2002C122.8 42.3002 125.8 41.3002 129.6 41.3002C132.1 41.3002 134.5 41.6002 136.7 42.3002C138.9 43.0002 140.7 44.0002 142.2 45.3002L140.9 46.4002C139.6 45.3002 138 44.5002 136 43.9002C134 43.3002 131.9 43.0002 129.6 43.0002C126.3 43.0002 123.7 43.8002 121.9 45.4002C120.1 47.0002 119.2 49.1002 119.2 51.6002C119.2 54.1002 119.9 56.1002 121.4 57.8002C122.9 59.3002 125 60.1002 127.8 60.1002Z" fill="black"/>
<path d="M163.9 54.9996H161C159.8 54.9996 158.9 54.6996 158.4 54.0996C157.9 53.4996 157.6 52.5996 157.6 51.5996C157.6 49.2996 159.3 48.1996 162.7 48.1996C165.9 48.1996 168.3 48.6996 169.9 49.5996L168.5 50.5996C167.4 50.0996 165.4 49.7996 162.6 49.7996C161.2 49.7996 160.3 49.9996 159.8 50.2996C159.3 50.5996 159.1 50.9996 159.1 51.5996C159.1 52.1996 159.2 52.5996 159.5 52.8996C159.8 53.1996 160.2 53.3996 160.9 53.3996H163.9C166 53.3996 168 53.7996 169.7 54.4996C171.4 55.1996 172.8 56.1996 173.9 57.4996C175 58.7996 175.9 60.1996 176.4 61.8996C177 63.4996 177.3 65.2996 177.3 67.1996C177.3 68.6996 177.1 70.1996 176.7 71.4996C176.3 72.8996 175.6 74.0996 174.8 75.2996C173.9 76.3996 172.9 77.3996 171.7 78.2996C170.5 79.0996 169 79.7996 167.4 80.2996C165.7 80.7996 163.9 80.9996 162 80.9996C158.9 80.9996 156.1 80.4996 153.4 79.5996C150.7 78.6996 148.5 77.3996 146.7 75.6996L148.1 74.6996C149.7 76.1996 151.7 77.2996 154.2 78.0996C156.6 78.8996 159.2 79.2996 162 79.2996C164.2 79.2996 166.1 78.9996 167.9 78.3996C169.7 77.7996 171.1 76.8996 172.2 75.7996C173.3 74.6996 174.2 73.3996 174.8 71.9996C175.4 70.5996 175.7 68.9996 175.7 67.2996C175.7 65.0996 175.3 63.0996 174.4 61.2996C173.5 59.4996 172.2 58.0996 170.3 56.9996C168.4 55.8996 166.4 54.9996 163.9 54.9996ZM161.1 63.4996H163.7C164.9 63.4996 165.8 63.7996 166.3 64.4996C166.8 65.0996 167.1 65.9996 167.1 66.9996C167.1 69.2996 165.4 70.3996 162 70.3996C158.8 70.3996 156.4 69.8996 154.7 68.9996L156.1 67.9996C157.2 68.4996 159.2 68.7996 162 68.7996C163.4 68.7996 164.3 68.5996 164.8 68.2996C165.3 67.9996 165.5 67.5996 165.5 66.9996C165.5 66.4996 165.4 66.0996 165.1 65.6996C164.8 65.3996 164.4 65.1996 163.7 65.1996H161.1C158.9 65.1996 156.9 64.7996 155.2 64.0996C153.4 63.3996 152 62.3996 150.8 61.0996C149.7 59.7996 148.8 58.3996 148.2 56.6996C147.6 54.9996 147.3 53.2996 147.3 51.3996C147.3 49.8996 147.5 48.3996 147.9 47.0996C148.3 45.6996 149 44.4996 149.8 43.2996C150.7 42.1996 151.7 41.1996 152.9 40.2996C154.1 39.4996 155.6 38.7996 157.2 38.2996C158.8 37.7996 160.7 37.5996 162.6 37.5996C165.7 37.5996 168.5 38.0996 171.2 38.9996C173.9 39.8996 176.1 41.1996 177.9 42.8996L176.5 43.8996C174.9 42.3996 172.9 41.2996 170.4 40.4996C168 39.6996 165.4 39.2996 162.6 39.2996C160.4 39.2996 158.5 39.5996 156.7 40.1996C154.9 40.7996 153.5 41.6996 152.4 42.7996C151.3 43.8996 150.4 45.1996 149.8 46.5996C149.2 47.9996 148.9 49.5996 148.9 51.2996C148.9 53.4996 149.4 55.5996 150.3 57.2996C151.2 59.0996 152.6 60.4996 154.4 61.5996C156.3 62.9996 158.5 63.4996 161.1 63.4996ZM161.1 56.6996H163.8C167 56.6996 169.5 57.6996 171.4 59.6996C173.3 61.6996 174.1 64.0996 174.1 66.9996C174.1 69.9996 173 72.3996 170.9 74.3996C168.8 76.3996 165.8 77.2996 162 77.2996C159.5 77.2996 157.1 76.9996 154.9 76.2996C152.7 75.5996 150.9 74.5996 149.4 73.2996L150.7 72.1996C152 73.2996 153.6 74.0996 155.6 74.6996C157.6 75.2996 159.7 75.5996 162 75.5996C165.3 75.5996 167.9 74.7996 169.7 73.1996C171.5 71.5996 172.4 69.4996 172.4 66.9996C172.4 64.4996 171.7 62.4996 170.2 60.8996C168.7 59.2996 166.6 58.4996 163.8 58.4996H161.1C158.8 58.4996 157 57.8996 155.9 56.5996C154.8 55.2996 154.2 53.6996 154.2 51.5996C154.2 49.4996 154.9 47.8996 156.4 46.5996C157.8 45.2996 160 44.6996 162.9 44.6996C164.9 44.6996 166.8 44.8996 168.5 45.3996C170.2 45.8996 171.7 46.4996 172.8 47.3996L171.4 48.3996C169.4 46.9996 166.6 46.3996 162.9 46.3996C160.5 46.3996 158.8 46.8996 157.7 47.7996C156.6 48.6996 156 49.9996 156 51.4996C156 53.0996 156.4 54.2996 157.2 55.1996C158 56.0996 159.2 56.6996 161.1 56.6996ZM161.1 60.0996H163.7C166 60.0996 167.8 60.6996 168.9 61.9996C170.1 63.2996 170.6 64.8996 170.6 66.8996C170.6 68.8996 169.9 70.5996 168.4 71.8996C167 73.1996 164.8 73.7996 161.9 73.7996C159.9 73.7996 158 73.5996 156.3 73.0996C154.6 72.5996 153.1 71.9996 152 71.0996L153.4 70.0996C155.4 71.4996 158.2 72.0996 162 72.0996C164.4 72.0996 166.1 71.5996 167.2 70.6996C168.3 69.7996 168.9 68.4996 168.9 66.9996C168.9 65.4996 168.5 64.1996 167.7 63.2996C166.9 62.3996 165.5 61.8996 163.7 61.8996H161.1C157.8 61.8996 155.3 60.8996 153.5 58.9996C151.7 57.0996 150.8 54.5996 150.8 51.5996C150.8 48.5996 151.9 46.1996 154 44.1996C156.1 42.1996 159.1 41.2996 162.9 41.2996C165.4 41.2996 167.8 41.5996 170 42.2996C172.2 42.9996 174 43.9996 175.5 45.2996L174.2 46.3996C172.9 45.2996 171.3 44.4996 169.3 43.8996C167.3 43.2996 165.2 42.9996 162.9 42.9996C159.6 42.9996 157 43.7996 155.2 45.3996C153.4 46.9996 152.5 49.0996 152.5 51.5996C152.5 54.0996 153.2 56.0996 154.7 57.7996C156.1 59.2996 158.3 60.0996 161.1 60.0996Z" fill="black"/>
<path d="M192.6 52.2V45C192.6 42.1 191.7 39.7 189.9 38C188.1 36.3 185.9 35.3 183.4 35.3H180.5V33.5H183.3C185.2 33.5 187 34 188.7 34.9C190.3 35.8 191.7 37.1 192.7 38.9C193.7 40.7 194.2 42.7 194.2 45V52.2C194.2 52.9 194.3 53.4 194.5 53.6C194.7 53.8 195 54 195.4 54H197.2V55.7H195.4C194.6 55.7 193.9 55.4 193.4 54.8C192.9 54.2 192.6 53.3 192.6 52.2ZM189.2 52.2V45C189.2 43 188.6 41.5 187.5 40.4C186.4 39.3 185 38.7 183.4 38.7H180.6V36.9H183.4C185.5 36.9 187.3 37.6 188.7 39.1C190.2 40.5 190.9 42.5 190.9 44.9V52.1C190.9 53.8 191.3 55.1 192.1 56C192.9 56.9 194 57.4 195.3 57.4H197.3V59.1H195.4C193.7 59.1 192.2 58.5 191 57.2C189.8 56 189.2 54.3 189.2 52.2ZM185.8 52.2V45C185.8 44.1 185.6 43.4 185.2 42.9C184.8 42.4 184.2 42.1 183.6 42.1H180.7V40.4H183.5C184.6 40.4 185.6 40.8 186.4 41.6C187.2 42.4 187.6 43.5 187.6 45V52.2C187.6 53.5 187.8 54.8 188.3 55.9C188.7 57 189.3 57.9 190.1 58.6C190.8 59.3 191.7 59.9 192.6 60.3C193.5 60.7 194.5 60.9 195.6 60.9H197.5V62.5H195.6C194.3 62.5 193.1 62.3 192 61.8C190.8 61.3 189.8 60.6 188.9 59.8C188 58.9 187.3 57.8 186.8 56.5C186.1 55.2 185.8 53.7 185.8 52.2ZM186.8 59.5L188.1 60.8C187.7 61.9 187.5 63.1 187.5 64.4V73.5C187.5 74.9 187.1 76 186.3 76.9C185.5 77.7 184.6 78.1 183.4 78.1H180.6V76.4H183.5C184.2 76.4 184.7 76.1 185.1 75.6C185.5 75.1 185.7 74.4 185.7 73.5V64.3C185.8 62.6 186.1 61 186.8 59.5ZM189.6 61.9L191.2 62.7C191 63.5 191 64.1 191 64.4V73.5C191 75.9 190.3 77.9 188.8 79.3C187.3 80.7 185.6 81.5 183.5 81.5H180.7V79.8H183.5C185.1 79.8 186.5 79.2 187.6 78.1C188.7 77 189.3 75.4 189.3 73.5V64.3C189.2 63.6 189.3 62.7 189.6 61.9ZM192.7 63.2L194.4 63.4C194.3 63.7 194.3 64 194.3 64.3V73.5C194.3 75.8 193.8 77.8 192.8 79.6C191.8 81.4 190.4 82.7 188.8 83.6C187.2 84.5 185.4 85 183.4 85H180.6V83.3H183.5C186 83.3 188.2 82.4 190 80.6C191.8 78.8 192.7 76.5 192.7 73.6V64.4C192.6 63.9 192.7 63.5 192.7 63.2Z" fill="black"/>
</g>
<defs>
<clipPath id="clip0_1_258181">
<rect width="145" height="52" fill="white" transform="translate(53 33.5)"/>
</clipPath>
</defs>
</svg>
